ffmpeg started on 2025-05-26 at 18:29:18
Report written to "D:\Convert\FFMetrics\reports\psnr_report-6.txt"
Log level: 32
Command line:
ffmpeg -hide_banner -nostdin -i "G:\\\xc0\xed\xe8\xec\xe5\\\xce\xed\xe3\xee\xe8\xed\xe3\xe8\\!_34_\xc2\xe5\xf1\xed\xe0_2024\\DreamCast\\\xc7\xe0\xe1\xe2\xe5\xed\xe8\xe5 \xe1\xfd\xf2\xf2\xe5\xf0\xe8\\[DC] Boukyaku Battery - 01_Telegram_HEVC.mkv" -i "G:\\\xc0\xed\xe8\xec\xe5\\\xce\xed\xe3\xee\xe8\xed\xe3\xe8\\!_34_\xc2\xe5\xf1\xed\xe0_2024\\DreamCast\\\xc7\xe0\xe1\xe2\xe5\xed\xe8\xe5 \xe1\xfd\xf2\xf2\xe5\xf0\xe8\\[DC] Boukyaku Battery - 01_Telegram.mp4" -lavfi "[0:v]settb=AVTB,setpts=PTS-STARTPTS,format=pix_fmts=yuv420p10,fps=24000/1001,scale=1920:1080:flags=bicubic[main];[1:v]settb=AVTB,setpts=PTS-STARTPTS,format=pix_fmts=yuv420p,fps=24000/1001,scale=1920:1080:flags=bicubic[ref];[main][ref]psnr=eof_action=endall:stats_file='D\\:/Convert/FFMetrics/logs/psnr_logfile-6.txt'" -f null -
Input #0, matroska,webm, from 'G:\Аниме\Онгоинги\!_34_Весна_2024\DreamCast\Забвение бэттери\[DC] Boukyaku Battery - 01_Telegram_HEVC.mkv':
  Metadata:
    COMPATIBLE_BRANDS: isomiso2avc1mp41
    MAJOR_BRAND     : isom
    MINOR_VERSION   : 512
    ENCODER         : Lavf61.7.100
  Duration: 00:24:05.68, start: -0.021000, bitrate: 1492 kb/s
  Stream #0:0: Video: hevc (Main 10), yuv420p10le(tv, bt709, progressive), 1920x1080 [SAR 1:1 DAR 16:9], 23.98 fps, 23.98 tbr, 1k tbn (default)
      Metadata:
        HANDLER_NAME    : VideoHandler
        VENDOR_ID       : [0][0][0][0]
        ENCODER         : Lavc61.19.100 libx265
        BPS             : 1297878
        DURATION        : 00:24:01.523708333
        NUMBER_OF_FRAMES: 34562
        NUMBER_OF_BYTES : 233865237
        _STATISTICS_WRITING_APP: mkvpropedit v66.0.0 ('Josie') 64-bit
        _STATISTICS_WRITING_DATE_UTC: 2025-05-26 10:01:50
        _STATISTICS_TAGS: BPS DURATION NUMBER_OF_FRAMES NUMBER_OF_BYTES
  Stream #0:1: Audio: aac (LC), 48000 Hz, stereo, fltp (default)
      Metadata:
        HANDLER_NAME    : SoundHandler
        VENDOR_ID       : [0][0][0][0]
        ENCODER         : Lavc61.19.100 aac
        BPS             : 194073
        DURATION        : 00:24:05.674000000
        NUMBER_OF_FRAMES: 67767
        NUMBER_OF_BYTES : 35070809
        _STATISTICS_WRITING_APP: mkvpropedit v66.0.0 ('Josie') 64-bit
        _STATISTICS_WRITING_DATE_UTC: 2025-05-26 10:01:50
        _STATISTICS_TAGS: BPS DURATION NUMBER_OF_FRAMES NUMBER_OF_BYTES
Input #1, mov,mp4,m4a,3gp,3g2,mj2, from 'G:\Аниме\Онгоинги\!_34_Весна_2024\DreamCast\Забвение бэттери\[DC] Boukyaku Battery - 01_Telegram.mp4':
  Metadata:
    major_brand     : isom
    minor_version   : 512
    compatible_brands: isomiso2avc1mp41
    encoder         : Lavf60.16.100
  Duration: 00:24:05.61, start: 0.000000, bitrate: 3916 kb/s
  Stream #1:0[0x1](und): Video: h264 (High) (avc1 / 0x31637661), yuv420p(tv, bt709, progressive), 1920x1080 [SAR 1:1 DAR 16:9], 3778 kb/s, 23.98 fps, 23.98 tbr, 24k tbn (default)
      Metadata:
        handler_name    : VideoHandler
        vendor_id       : [0][0][0][0]
        encoder         : Lavc60.31.102 h264_qsv
  Stream #1:1[0x2](und): Audio: aac (HE-AACv2) (mp4a / 0x6134706D), 48000 Hz, stereo, fltp, 144 kb/s (default)
      Metadata:
        handler_name    : SoundHandler
        vendor_id       : [0][0][0][0]
Stream mapping:
  Stream #0:0 (hevc) -> settb:default
  Stream #1:0 (h264) -> settb:default
  psnr:default -> Stream #0:0 (wrapped_avframe)
  Stream #0:1 -> #0:1 (aac (native) -> pcm_s16le (native))
Output #0, null, to 'pipe:':
  Metadata:
    COMPATIBLE_BRANDS: isomiso2avc1mp41
    MAJOR_BRAND     : isom
    MINOR_VERSION   : 512
    encoder         : Lavf61.7.100
  Stream #0:0: Video: wrapped_avframe, yuv420p10le(tv, bt709, progressive), 1920x1080 [SAR 1:1 DAR 16:9], q=2-31, 200 kb/s, 23.98 fps, 23.98 tbn
      Metadata:
        encoder         : Lavc61.19.100 wrapped_avframe
  Stream #0:1: Audio: pcm_s16le, 48000 Hz, stereo, s16, 1536 kb/s (default)
      Metadata:
        HANDLER_NAME    : SoundHandler
        VENDOR_ID       : [0][0][0][0]
        _STATISTICS_TAGS: BPS DURATION NUMBER_OF_FRAMES NUMBER_OF_BYTES
        BPS             : 194073
        DURATION        : 00:24:05.674000000
        NUMBER_OF_FRAMES: 67767
        NUMBER_OF_BYTES : 35070809
        _STATISTICS_WRITING_APP: mkvpropedit v66.0.0 ('Josie') 64-bit
        _STATISTICS_WRITING_DATE_UTC: 2025-05-26 10:01:50
        encoder         : Lavc61.19.100 pcm_s16le
frame=  175 fps=0.0 q=-0.0 size=N/A time=00:00:07.29 bitrate=N/A speed=  14x    frame=  437 fps=425 q=-0.0 size=N/A time=00:00:18.22 bitrate=N/A speed=17.7x    frame=  680 fps=438 q=-0.0 size=N/A time=00:00:28.36 bitrate=N/A speed=18.3x    frame=  868 fps=422 q=-0.0 size=N/A time=00:00:36.20 bitrate=N/A speed=17.6x    frame= 1112 fps=431 q=-0.0 size=N/A time=00:00:46.37 bitrate=N/A speed=  18x    frame= 1319 fps=427 q=-0.0 size=N/A time=00:00:55.01 bitrate=N/A speed=17.8x    frame= 1570 fps=435 q=-0.0 size=N/A time=00:01:05.48 bitrate=N/A speed=18.1x    frame= 1772 fps=430 q=-0.0 size=N/A time=00:01:13.90 bitrate=N/A speed=17.9x    frame= 1975 fps=425 q=-0.0 size=N/A time=00:01:22.37 bitrate=N/A speed=17.7x    frame= 2232 fps=432 q=-0.0 size=N/A time=00:01:33.09 bitrate=N/A speed=  18x    frame= 2462 fps=434 q=-0.0 size=N/A time=00:01:42.68 bitrate=N/A speed=18.1x    frame= 2690 fps=435 q=-0.0 size=N/A time=00:01:52.19 bitrate=N/A speed=18.2x    frame= 2930 fps=437 q=-0.0 size=N/A time=00:02:02.20 bitrate=N/A speed=18.2x    frame= 3164 fps=439 q=-0.0 size=N/A time=00:02:11.96 bitrate=N/A speed=18.3x    frame= 3394 fps=439 q=-0.0 size=N/A time=00:02:21.55 bitrate=N/A speed=18.3x    frame= 3611 fps=438 q=-0.0 size=N/A time=00:02:30.60 bitrate=N/A speed=18.3x    frame= 3858 fps=440 q=-0.0 size=N/A time=00:02:40.91 bitrate=N/A speed=18.4x    frame= 4119 fps=444 q=-0.0 size=N/A time=00:02:51.79 bitrate=N/A speed=18.5x    frame= 4392 fps=448 q=-0.0 size=N/A time=00:03:03.18 bitrate=N/A speed=18.7x    frame= 4659 fps=452 q=-0.0 size=N/A time=00:03:14.31 bitrate=N/A speed=18.9x    frame= 4907 fps=453 q=-0.0 size=N/A time=00:03:24.66 bitrate=N/A speed=18.9x    frame= 5101 fps=450 q=-0.0 size=N/A time=00:03:32.75 bitrate=N/A speed=18.8x    frame= 5314 fps=448 q=-0.0 size=N/A time=00:03:41.63 bitrate=N/A speed=18.7x    frame= 5535 fps=447 q=-0.0 size=N/A time=00:03:50.85 bitrate=N/A speed=18.7x    frame= 5722 fps=444 q=-0.0 size=N/A time=00:03:58.65 bitrate=N/A speed=18.5x    frame= 5908 fps=440 q=-0.0 size=N/A time=00:04:06.41 bitrate=N/A speed=18.4x    frame= 6118 fps=439 q=-0.0 size=N/A time=00:04:15.17 bitrate=N/A speed=18.3x    frame= 6296 fps=436 q=-0.0 size=N/A time=00:04:22.59 bitrate=N/A speed=18.2x    frame= 6513 fps=435 q=-0.0 size=N/A time=00:04:31.64 bitrate=N/A speed=18.1x    frame= 6734 fps=435 q=-0.0 size=N/A time=00:04:40.86 bitrate=N/A speed=18.1x    frame= 6948 fps=434 q=-0.0 size=N/A time=00:04:49.78 bitrate=N/A speed=18.1x    frame= 7166 fps=434 q=-0.0 size=N/A time=00:04:58.88 bitrate=N/A speed=18.1x    frame= 7392 fps=434 q=-0.0 size=N/A time=00:05:08.30 bitrate=N/A speed=18.1x    frame= 7654 fps=436 q=-0.0 size=N/A time=00:05:19.23 bitrate=N/A speed=18.2x    frame= 7788 fps=431 q=-0.0 size=N/A time=00:05:24.82 bitrate=N/A speed=  18x    frame= 8006 fps=431 q=-0.0 size=N/A time=00:05:33.91 bitrate=N/A speed=  18x    frame= 8257 fps=433 q=-0.0 size=N/A time=00:05:44.38 bitrate=N/A speed=  18x    frame= 8466 fps=432 q=-0.0 size=N/A time=00:05:53.10 bitrate=N/A speed=  18x    frame= 8679 fps=431 q=-0.0 size=N/A time=00:06:01.98 bitrate=N/A speed=  18x    frame= 8877 fps=430 q=-0.0 size=N/A time=00:06:10.24 bitrate=N/A speed=17.9x    frame= 9080 fps=429 q=-0.0 size=N/A time=00:06:18.71 bitrate=N/A speed=17.9x    frame= 9294 fps=429 q=-0.0 size=N/A time=00:06:27.63 bitrate=N/A speed=17.9x    frame= 9526 fps=429 q=-0.0 size=N/A time=00:06:37.31 bitrate=N/A speed=17.9x    frame= 9795 fps=431 q=-0.0 size=N/A time=00:06:48.53 bitrate=N/A speed=  18x    frame=10038 fps=432 q=-0.0 size=N/A time=00:06:58.66 bitrate=N/A speed=  18x    frame=10258 fps=432 q=-0.0 size=N/A time=00:07:07.84 bitrate=N/A speed=  18x    frame=10512 fps=433 q=-0.0 size=N/A time=00:07:18.43 bitrate=N/A speed=18.1x    frame=10731 fps=433 q=-0.0 size=N/A time=00:07:27.57 bitrate=N/A speed=18.1x    frame=10957 fps=433 q=-0.0 size=N/A time=00:07:36.99 bitrate=N/A speed=18.1x    frame=11200 fps=434 q=-0.0 size=N/A time=00:07:47.13 bitrate=N/A speed=18.1x    frame=11457 fps=435 q=-0.0 size=N/A time=00:07:57.85 bitrate=N/A speed=18.2x    frame=11697 fps=436 q=-0.0 size=N/A time=00:08:07.86 bitrate=N/A speed=18.2x    frame=11987 fps=438 q=-0.0 size=N/A time=00:08:19.95 bitrate=N/A speed=18.3x    frame=12187 fps=437 q=-0.0 size=N/A time=00:08:28.29 bitrate=N/A speed=18.2x    frame=12436 fps=438 q=-0.0 size=N/A time=00:08:38.68 bitrate=N/A speed=18.3x    frame=12679 fps=439 q=-0.0 size=N/A time=00:08:48.81 bitrate=N/A speed=18.3x    frame=12941 fps=440 q=-0.0 size=N/A time=00:08:59.74 bitrate=N/A speed=18.4x    frame=13210 fps=441 q=-0.0 size=N/A time=00:09:10.96 bitrate=N/A speed=18.4x    frame=13448 fps=442 q=-0.0 size=N/A time=00:09:20.89 bitrate=N/A speed=18.4x    frame=13654 fps=441 q=-0.0 size=N/A time=00:09:29.48 bitrate=N/A speed=18.4x    frame=13875 fps=441 q=-0.0 size=N/A time=00:09:38.70 bitrate=N/A speed=18.4x    frame=14116 fps=441 q=-0.0 size=N/A time=00:09:48.75 bitrate=N/A speed=18.4x    frame=14303 fps=440 q=-0.0 size=N/A time=00:09:56.55 bitrate=N/A speed=18.4x    frame=14565 fps=441 q=-0.0 size=N/A time=00:10:07.48 bitrate=N/A speed=18.4x    frame=14747 fps=440 q=-0.0 size=N/A time=00:10:15.07 bitrate=N/A speed=18.3x    frame=14970 fps=440 q=-0.0 size=N/A time=00:10:24.37 bitrate=N/A speed=18.3x    frame=15208 fps=440 q=-0.0 size=N/A time=00:10:34.30 bitrate=N/A speed=18.4x    frame=15494 fps=442 q=-0.0 size=N/A time=00:10:46.22 bitrate=N/A speed=18.4x    frame=15784 fps=443 q=-0.0 size=N/A time=00:10:58.32 bitrate=N/A speed=18.5x    frame=15978 fps=443 q=-0.0 size=N/A time=00:11:06.41 bitrate=N/A speed=18.5x    frame=16244 fps=443 q=-0.0 size=N/A time=00:11:17.51 bitrate=N/A speed=18.5x    frame=16480 fps=444 q=-0.0 size=N/A time=00:11:27.35 bitrate=N/A speed=18.5x    frame=16728 fps=444 q=-0.0 size=N/A time=00:11:37.69 bitrate=N/A speed=18.5x    frame=16978 fps=445 q=-0.0 size=N/A time=00:11:48.12 bitrate=N/A speed=18.6x    frame=17248 fps=446 q=-0.0 size=N/A time=00:11:59.38 bitrate=N/A speed=18.6x    frame=17468 fps=446 q=-0.0 size=N/A time=00:12:08.56 bitrate=N/A speed=18.6x    frame=17753 fps=447 q=-0.0 size=N/A time=00:12:20.44 bitrate=N/A speed=18.6x    frame=18019 fps=448 q=-0.0 size=N/A time=00:12:31.54 bitrate=N/A speed=18.7x    frame=18269 fps=448 q=-0.0 size=N/A time=00:12:41.96 bitrate=N/A speed=18.7x    frame=18515 fps=449 q=-0.0 size=N/A time=00:12:52.22 bitrate=N/A speed=18.7x    frame=18787 fps=450 q=-0.0 size=N/A time=00:13:03.57 bitrate=N/A speed=18.8x    frame=19033 fps=450 q=-0.0 size=N/A time=00:13:13.83 bitrate=N/A speed=18.8x    frame=19273 fps=450 q=-0.0 size=N/A time=00:13:23.84 bitrate=N/A speed=18.8x    frame=19556 fps=451 q=-0.0 size=N/A time=00:13:35.64 bitrate=N/A speed=18.8x    frame=19835 fps=452 q=-0.0 size=N/A time=00:13:47.28 bitrate=N/A speed=18.9x    frame=20096 fps=453 q=-0.0 size=N/A time=00:13:58.17 bitrate=N/A speed=18.9x    frame=20307 fps=452 q=-0.0 size=N/A time=00:14:06.97 bitrate=N/A speed=18.9x    frame=20513 fps=452 q=-0.0 size=N/A time=00:14:15.56 bitrate=N/A speed=18.9x    frame=20779 fps=453 q=-0.0 size=N/A time=00:14:26.65 bitrate=N/A speed=18.9x    frame=21015 fps=453 q=-0.0 size=N/A time=00:14:36.50 bitrate=N/A speed=18.9x    frame=21214 fps=452 q=-0.0 size=N/A time=00:14:44.80 bitrate=N/A speed=18.8x    frame=21429 fps=452 q=-0.0 size=N/A time=00:14:53.76 bitrate=N/A speed=18.8x    frame=21685 fps=452 q=-0.0 size=N/A time=00:15:04.44 bitrate=N/A speed=18.9x    frame=21934 fps=452 q=-0.0 size=N/A time=00:15:14.83 bitrate=N/A speed=18.9x    frame=22153 fps=452 q=-0.0 size=N/A time=00:15:23.96 bitrate=N/A speed=18.9x    frame=22369 fps=452 q=-0.0 size=N/A time=00:15:32.97 bitrate=N/A speed=18.8x    frame=22595 fps=452 q=-0.0 size=N/A time=00:15:42.39 bitrate=N/A speed=18.8x    frame=22818 fps=451 q=-0.0 size=N/A time=00:15:51.70 bitrate=N/A speed=18.8x    frame=23061 fps=452 q=-0.0 size=N/A time=00:16:01.83 bitrate=N/A speed=18.8x    frame=23275 fps=451 q=-0.0 size=N/A time=00:16:10.76 bitrate=N/A speed=18.8x    frame=23528 fps=452 q=-0.0 size=N/A time=00:16:21.31 bitrate=N/A speed=18.8x    frame=23758 fps=452 q=-0.0 size=N/A time=00:16:30.90 bitrate=N/A speed=18.8x    frame=24007 fps=452 q=-0.0 size=N/A time=00:16:41.29 bitrate=N/A speed=18.8x    frame=24259 fps=452 q=-0.0 size=N/A time=00:16:51.80 bitrate=N/A speed=18.9x    frame=24463 fps=452 q=-0.0 size=N/A time=00:17:00.31 bitrate=N/A speed=18.8x    frame=24672 fps=451 q=-0.0 size=N/A time=00:17:09.02 bitrate=N/A speed=18.8x    frame=24927 fps=451 q=-0.0 size=N/A time=00:17:19.66 bitrate=N/A speed=18.8x    frame=25198 fps=452 q=-0.0 size=N/A time=00:17:30.96 bitrate=N/A speed=18.9x    frame=25458 fps=453 q=-0.0 size=N/A time=00:17:41.81 bitrate=N/A speed=18.9x    frame=25723 fps=453 q=-0.0 size=N/A time=00:17:52.86 bitrate=N/A speed=18.9x    frame=25995 fps=454 q=-0.0 size=N/A time=00:18:04.20 bitrate=N/A speed=18.9x    frame=26218 fps=454 q=-0.0 size=N/A time=00:18:13.50 bitrate=N/A speed=18.9x    frame=26474 fps=454 q=-0.0 size=N/A time=00:18:24.18 bitrate=N/A speed=18.9x    frame=26687 fps=454 q=-0.0 size=N/A time=00:18:33.07 bitrate=N/A speed=18.9x    frame=26951 fps=454 q=-0.0 size=N/A time=00:18:44.08 bitrate=N/A speed=18.9x    frame=27190 fps=454 q=-0.0 size=N/A time=00:18:54.04 bitrate=N/A speed=18.9x    frame=27432 fps=454 q=-0.0 size=N/A time=00:19:04.14 bitrate=N/A speed=18.9x    frame=27704 fps=455 q=-0.0 size=N/A time=00:19:15.48 bitrate=N/A speed=  19x    frame=27942 fps=455 q=-0.0 size=N/A time=00:19:25.41 bitrate=N/A speed=  19x    frame=28207 fps=456 q=-0.0 size=N/A time=00:19:36.46 bitrate=N/A speed=  19x    frame=28493 fps=456 q=-0.0 size=N/A time=00:19:48.39 bitrate=N/A speed=  19x    frame=28703 fps=456 q=-0.0 size=N/A time=00:19:57.15 bitrate=N/A speed=  19x    frame=28950 fps=456 q=-0.0 size=N/A time=00:20:07.45 bitrate=N/A speed=  19x    frame=29178 fps=456 q=-0.0 size=N/A time=00:20:16.96 bitrate=N/A speed=  19x    frame=29444 fps=456 q=-0.0 size=N/A time=00:20:28.06 bitrate=N/A speed=  19x    frame=29684 fps=457 q=-0.0 size=N/A time=00:20:38.07 bitrate=N/A speed=  19x    frame=29893 fps=456 q=-0.0 size=N/A time=00:20:46.78 bitrate=N/A speed=  19x    frame=30111 fps=456 q=-0.0 size=N/A time=00:20:55.87 bitrate=N/A speed=  19x    frame=30321 fps=455 q=-0.0 size=N/A time=00:21:04.63 bitrate=N/A speed=  19x    frame=30550 fps=455 q=-0.0 size=N/A time=00:21:14.18 bitrate=N/A speed=  19x    frame=30764 fps=455 q=-0.0 size=N/A time=00:21:23.11 bitrate=N/A speed=  19x    frame=31050 fps=456 q=-0.0 size=N/A time=00:21:35.04 bitrate=N/A speed=  19x    frame=31254 fps=455 q=-0.0 size=N/A time=00:21:43.55 bitrate=N/A speed=  19x    frame=31481 fps=455 q=-0.0 size=N/A time=00:21:53.02 bitrate=N/A speed=  19x    frame=31710 fps=455 q=-0.0 size=N/A time=00:22:02.57 bitrate=N/A speed=  19x    frame=31900 fps=454 q=-0.0 size=N/A time=00:22:10.49 bitrate=N/A speed=  19x    frame=32119 fps=454 q=-0.0 size=N/A time=00:22:19.62 bitrate=N/A speed=18.9x    frame=32332 fps=454 q=-0.0 size=N/A time=00:22:28.51 bitrate=N/A speed=18.9x    frame=32558 fps=454 q=-0.0 size=N/A time=00:22:37.93 bitrate=N/A speed=18.9x    frame=32758 fps=453 q=-0.0 size=N/A time=00:22:46.28 bitrate=N/A speed=18.9x    frame=32924 fps=452 q=-0.0 size=N/A time=00:22:53.20 bitrate=N/A speed=18.9x    frame=33114 fps=452 q=-0.0 size=N/A time=00:23:01.12 bitrate=N/A speed=18.8x    frame=33308 fps=451 q=-0.0 size=N/A time=00:23:09.22 bitrate=N/A speed=18.8x    frame=33514 fps=451 q=-0.0 size=N/A time=00:23:17.81 bitrate=N/A speed=18.8x    frame=33658 fps=450 q=-0.0 size=N/A time=00:23:23.81 bitrate=N/A speed=18.8x    frame=33831 fps=449 q=-0.0 size=N/A time=00:23:31.03 bitrate=N/A speed=18.7x    frame=33998 fps=448 q=-0.0 size=N/A time=00:23:37.99 bitrate=N/A speed=18.7x    frame=34204 fps=448 q=-0.0 size=N/A time=00:23:46.59 bitrate=N/A speed=18.7x    frame=34436 fps=448 q=-0.0 size=N/A time=00:23:56.26 bitrate=N/A speed=18.7x    [Parsed_psnr_10 @ 00000224007fb000] PSNR y:47.139909 u:49.424068 v:48.938469 average:47.718251 min:40.102939 max:inf
[out#0/null @ 0000022472424e80] video:14851KiB audio:271068KiB subtitle:0KiB other streams:0KiB global headers:0KiB muxing overhead: unknown
frame=34562 fps=447 q=-0.0 Lsize=N/A time=00:24:01.52 bitrate=N/A speed=18.7x    
